# xmcd CD database file
#
# Track frame offsets:
#	150
#	11708
#	20166
#	37006
#	54999
#	67995
#	80147
#	94651
#	109065
#	120666
#	135611
#	152227
#	171417
#	190154
#	209861
#	222654
#	236968
#	252052
#	272050
#	283036
#	297366
#	311405
#
# Disc length: 4330 seconds
#
# Revision: 0
# Processed by: cddbd v1.5.1PL0 Copyright (c) Steve Scherf et al.
# Submitted via: CDex 1.51
#
DISCID=5910e816
DTITLE=Benny Goodman - V-Disc
DYEAR=1900
DGENRE=Jazz
TTITLE0=Under The Double Eagle
TTITLE1=I Know That You Know
TTITLE2=Who's Sorry Now
TTITLE3=Rattle And Roll
TTITLE4=Lucky
TTITLE5=Come To Baby Do
TTITLE6=After You've Gone
TTITLE7=There'll Be A Jubilee
TTITLE8=Sugar Foot Stomp
TTITLE9=I've Found A New Baby
TTITLE10=Oh Lady Be Good
TTITLE11=Untitled (Slipped Disc)
TTITLE12=I Want To Be Loved
TTITLE13=Exactly Like You
TTITLE14=Just One Of Those Things
TTITLE15=Rachel's Dream
TTITLE16=Let's Fall In Love
TTITLE17=Rode Room
TTITLE18=Henderson Stomp
TTITLE19=Dinah
TTITLE20='way Down Yonder In New Orleans
TTITLE21=Sweet Georgia Brown
EXTD=
EXTT0=
EXTT1=
EXTT2=
EXTT3=
EXTT4=
EXTT5=
EXTT6=
EXTT7=
EXTT8=
EXTT9=
EXTT10=
EXTT11=
EXTT12=
EXTT13=
EXTT14=
EXTT15=
EXTT16=
EXTT17=
EXTT18=
EXTT19=
EXTT20=
EXTT21=
PLAYORDER=
